<mxfile host="Electron" agent="Mozilla/5.0 (X11; Linux x86_64) AppleWebKit/537.36 (KHTML, like Gecko) draw.io/24.7.17 Chrome/128.0.6613.36 Electron/32.0.1 Safari/537.36" version="24.7.17" pages="5">
  <diagram name="Configuration" id="c4acf3e9-155e-7222-9cf6-157b1a14988f">
    <mxGraphModel dx="1388" dy="838" grid="1" gridSize="10" guides="1" tooltips="1" connect="1" arrows="1" fold="1" page="1" pageScale="1" pageWidth="583" pageHeight="413" background="none" math="0" shadow="0">
      <root>
        <mxCell id="0" />
        <mxCell id="1" parent="0" />
        <mxCell id="M7W7zSa2dvFy5xtHh6_w-4" value="«Component»&lt;br&gt;&lt;b&gt;Configuration&lt;/b&gt;" style="html=1;dropTarget=0;whiteSpace=wrap;movableLabel=1;" parent="1" vertex="1">
          <mxGeometry x="80" y="80" width="440" height="240" as="geometry">
            <mxPoint x="1" y="-102" as="offset" />
          </mxGeometry>
        </mxCell>
        <mxCell id="M7W7zSa2dvFy5xtHh6_w-5" value="" style="shape=module;jettyWidth=8;jettyHeight=4;" parent="M7W7zSa2dvFy5xtHh6_w-4" vertex="1">
          <mxGeometry x="1" width="20" height="20" relative="1" as="geometry">
            <mxPoint x="-27" y="7" as="offset" />
          </mxGeometry>
        </mxCell>
        <mxCell id="M7W7zSa2dvFy5xtHh6_w-6" value="" style="html=1;rounded=0;" parent="1" vertex="1">
          <mxGeometry x="75" y="132" width="10" height="10" as="geometry" />
        </mxCell>
        <mxCell id="M7W7zSa2dvFy5xtHh6_w-7" value="" style="endArrow=none;html=1;rounded=0;align=center;verticalAlign=top;endFill=0;labelBackgroundColor=none;endSize=2;" parent="1" source="M7W7zSa2dvFy5xtHh6_w-6" target="M7W7zSa2dvFy5xtHh6_w-8" edge="1">
          <mxGeometry relative="1" as="geometry" />
        </mxCell>
        <mxCell id="M7W7zSa2dvFy5xtHh6_w-8" value="" style="ellipse;html=1;fontSize=11;align=center;fillColor=none;points=[];aspect=fixed;resizable=0;verticalAlign=bottom;labelPosition=center;verticalLabelPosition=top;flipH=1;" parent="1" vertex="1">
          <mxGeometry x="40" y="133" width="8" height="8" as="geometry" />
        </mxCell>
        <mxCell id="M7W7zSa2dvFy5xtHh6_w-9" value="" style="html=1;rounded=0;" parent="1" vertex="1">
          <mxGeometry x="75" y="250" width="10" height="10" as="geometry" />
        </mxCell>
        <mxCell id="M7W7zSa2dvFy5xtHh6_w-10" value="" style="endArrow=none;html=1;rounded=0;align=center;verticalAlign=top;endFill=0;labelBackgroundColor=none;endSize=2;" parent="1" source="M7W7zSa2dvFy5xtHh6_w-9" target="M7W7zSa2dvFy5xtHh6_w-11" edge="1">
          <mxGeometry relative="1" as="geometry" />
        </mxCell>
        <mxCell id="M7W7zSa2dvFy5xtHh6_w-11" value="" style="ellipse;html=1;fontSize=11;align=center;fillColor=none;points=[];aspect=fixed;resizable=0;verticalAlign=bottom;labelPosition=center;verticalLabelPosition=top;flipH=1;" parent="1" vertex="1">
          <mxGeometry x="40" y="251" width="8" height="8" as="geometry" />
        </mxCell>
        <mxCell id="M7W7zSa2dvFy5xtHh6_w-12" value="Configuration Parameters" style="text;html=1;align=center;verticalAlign=middle;whiteSpace=wrap;rounded=0;" parent="1" vertex="1">
          <mxGeometry x="10" y="100" width="60" height="30" as="geometry" />
        </mxCell>
        <mxCell id="M7W7zSa2dvFy5xtHh6_w-13" value="Configuration Interface" style="text;html=1;align=center;verticalAlign=middle;whiteSpace=wrap;rounded=0;" parent="1" vertex="1">
          <mxGeometry x="10" y="220" width="60" height="30" as="geometry" />
        </mxCell>
        <mxCell id="M7W7zSa2dvFy5xtHh6_w-14" value="ConfigurationController" style="shape=module;align=left;spacingLeft=20;align=center;verticalAlign=top;whiteSpace=wrap;html=1;" parent="1" vertex="1">
          <mxGeometry x="110" y="170" width="160" height="50" as="geometry" />
        </mxCell>
        <mxCell id="M7W7zSa2dvFy5xtHh6_w-15" value="ConfigurationService" style="shape=module;align=left;spacingLeft=20;align=center;verticalAlign=top;whiteSpace=wrap;html=1;" parent="1" vertex="1">
          <mxGeometry x="310" y="170" width="160" height="50" as="geometry" />
        </mxCell>
        <mxCell id="M7W7zSa2dvFy5xtHh6_w-17" value="" style="endArrow=open;endSize=12;dashed=1;html=1;rounded=0;exitX=1;exitY=1;exitDx=0;exitDy=0;entryX=0;entryY=1;entryDx=10;entryDy=0;entryPerimeter=0;" parent="1" source="M7W7zSa2dvFy5xtHh6_w-14" target="M7W7zSa2dvFy5xtHh6_w-15" edge="1">
          <mxGeometry width="160" relative="1" as="geometry">
            <mxPoint x="230" y="260" as="sourcePoint" />
            <mxPoint x="390" y="260" as="targetPoint" />
          </mxGeometry>
        </mxCell>
      </root>
    </mxGraphModel>
  </diagram>
  <diagram name="Analytics" id="010JoR0LRLO2Mu88k-fc">
    <mxGraphModel dx="957" dy="578" grid="1" gridSize="10" guides="1" tooltips="1" connect="1" arrows="1" fold="1" page="1" pageScale="1" pageWidth="583" pageHeight="413" background="none" math="0" shadow="0">
      <root>
        <mxCell id="12eHaGMiyivRJ3mnbmv7-0" />
        <mxCell id="12eHaGMiyivRJ3mnbmv7-1" parent="12eHaGMiyivRJ3mnbmv7-0" />
        <mxCell id="12eHaGMiyivRJ3mnbmv7-2" value="«Component»&lt;br&gt;&lt;b&gt;Analytics&lt;/b&gt;" style="html=1;dropTarget=0;whiteSpace=wrap;movableLabel=1;" parent="12eHaGMiyivRJ3mnbmv7-1" vertex="1">
          <mxGeometry x="80" y="80" width="440" height="240" as="geometry">
            <mxPoint x="1" y="-102" as="offset" />
          </mxGeometry>
        </mxCell>
        <mxCell id="12eHaGMiyivRJ3mnbmv7-3" value="" style="shape=module;jettyWidth=8;jettyHeight=4;" parent="12eHaGMiyivRJ3mnbmv7-2" vertex="1">
          <mxGeometry x="1" width="20" height="20" relative="1" as="geometry">
            <mxPoint x="-27" y="7" as="offset" />
          </mxGeometry>
        </mxCell>
        <mxCell id="12eHaGMiyivRJ3mnbmv7-4" value="" style="html=1;rounded=0;" parent="12eHaGMiyivRJ3mnbmv7-1" vertex="1">
          <mxGeometry x="75" y="132" width="10" height="10" as="geometry" />
        </mxCell>
        <mxCell id="12eHaGMiyivRJ3mnbmv7-5" value="" style="endArrow=none;html=1;rounded=0;align=center;verticalAlign=top;endFill=0;labelBackgroundColor=none;endSize=2;" parent="12eHaGMiyivRJ3mnbmv7-1" source="12eHaGMiyivRJ3mnbmv7-4" target="12eHaGMiyivRJ3mnbmv7-6" edge="1">
          <mxGeometry relative="1" as="geometry" />
        </mxCell>
        <mxCell id="12eHaGMiyivRJ3mnbmv7-6" value="" style="ellipse;html=1;fontSize=11;align=center;fillColor=none;points=[];aspect=fixed;resizable=0;verticalAlign=bottom;labelPosition=center;verticalLabelPosition=top;flipH=1;" parent="12eHaGMiyivRJ3mnbmv7-1" vertex="1">
          <mxGeometry x="40" y="133" width="8" height="8" as="geometry" />
        </mxCell>
        <mxCell id="12eHaGMiyivRJ3mnbmv7-7" value="" style="html=1;rounded=0;" parent="12eHaGMiyivRJ3mnbmv7-1" vertex="1">
          <mxGeometry x="75" y="250" width="10" height="10" as="geometry" />
        </mxCell>
        <mxCell id="12eHaGMiyivRJ3mnbmv7-8" value="" style="endArrow=none;html=1;rounded=0;align=center;verticalAlign=top;endFill=0;labelBackgroundColor=none;endSize=2;" parent="12eHaGMiyivRJ3mnbmv7-1" source="12eHaGMiyivRJ3mnbmv7-7" target="12eHaGMiyivRJ3mnbmv7-9" edge="1">
          <mxGeometry relative="1" as="geometry" />
        </mxCell>
        <mxCell id="12eHaGMiyivRJ3mnbmv7-9" value="" style="ellipse;html=1;fontSize=11;align=center;fillColor=none;points=[];aspect=fixed;resizable=0;verticalAlign=bottom;labelPosition=center;verticalLabelPosition=top;flipH=1;" parent="12eHaGMiyivRJ3mnbmv7-1" vertex="1">
          <mxGeometry x="40" y="251" width="8" height="8" as="geometry" />
        </mxCell>
        <mxCell id="12eHaGMiyivRJ3mnbmv7-10" value="Analytics Contract" style="text;html=1;align=center;verticalAlign=middle;whiteSpace=wrap;rounded=0;fontSize=9;" parent="12eHaGMiyivRJ3mnbmv7-1" vertex="1">
          <mxGeometry x="10" y="100" width="60" height="30" as="geometry" />
        </mxCell>
        <mxCell id="12eHaGMiyivRJ3mnbmv7-11" value="Provide Analytics" style="text;html=1;align=center;verticalAlign=middle;whiteSpace=wrap;rounded=0;fontSize=9;" parent="12eHaGMiyivRJ3mnbmv7-1" vertex="1">
          <mxGeometry x="10" y="220" width="60" height="30" as="geometry" />
        </mxCell>
        <mxCell id="12eHaGMiyivRJ3mnbmv7-12" value="AnalyticsController" style="shape=module;align=left;spacingLeft=20;align=center;verticalAlign=top;whiteSpace=wrap;html=1;" parent="12eHaGMiyivRJ3mnbmv7-1" vertex="1">
          <mxGeometry x="110" y="128" width="160" height="50" as="geometry" />
        </mxCell>
        <mxCell id="12eHaGMiyivRJ3mnbmv7-13" value="AnalyticsService" style="shape=module;align=left;spacingLeft=20;align=center;verticalAlign=top;whiteSpace=wrap;html=1;" parent="12eHaGMiyivRJ3mnbmv7-1" vertex="1">
          <mxGeometry x="310" y="128" width="160" height="50" as="geometry" />
        </mxCell>
        <mxCell id="12eHaGMiyivRJ3mnbmv7-14" value="" style="endArrow=open;endSize=12;dashed=1;html=1;rounded=0;exitX=1;exitY=1;exitDx=0;exitDy=0;entryX=0;entryY=1;entryDx=10;entryDy=0;entryPerimeter=0;" parent="12eHaGMiyivRJ3mnbmv7-1" source="12eHaGMiyivRJ3mnbmv7-12" target="12eHaGMiyivRJ3mnbmv7-13" edge="1">
          <mxGeometry width="160" relative="1" as="geometry">
            <mxPoint x="230" y="218" as="sourcePoint" />
            <mxPoint x="390" y="218" as="targetPoint" />
          </mxGeometry>
        </mxCell>
        <mxCell id="j28vBrq5Vi4BGhJpNS99-0" value="" style="html=1;rounded=0;" parent="12eHaGMiyivRJ3mnbmv7-1" vertex="1">
          <mxGeometry x="445" y="315" width="10" height="10" as="geometry" />
        </mxCell>
        <mxCell id="j28vBrq5Vi4BGhJpNS99-4" value="" style="ellipse;html=1;fontSize=11;align=center;fillColor=none;points=[];aspect=fixed;resizable=0;verticalAlign=bottom;labelPosition=center;verticalLabelPosition=top;flipH=1;" parent="12eHaGMiyivRJ3mnbmv7-1" vertex="1">
          <mxGeometry x="446" y="341" width="8" height="8" as="geometry" />
        </mxCell>
        <mxCell id="j28vBrq5Vi4BGhJpNS99-5" value="" style="endArrow=none;html=1;rounded=0;align=center;verticalAlign=top;endFill=0;labelBackgroundColor=none;endSize=2;exitX=0.5;exitY=1;exitDx=0;exitDy=0;entryX=0.501;entryY=-0.041;entryDx=0;entryDy=0;entryPerimeter=0;" parent="12eHaGMiyivRJ3mnbmv7-1" source="j28vBrq5Vi4BGhJpNS99-0" target="j28vBrq5Vi4BGhJpNS99-4" edge="1">
          <mxGeometry relative="1" as="geometry">
            <mxPoint x="550" y="231" as="sourcePoint" />
            <mxPoint x="470" y="341" as="targetPoint" />
          </mxGeometry>
        </mxCell>
        <mxCell id="j28vBrq5Vi4BGhJpNS99-7" value="Activity Analytics Configuration" style="text;html=1;align=center;verticalAlign=middle;whiteSpace=wrap;rounded=0;fontSize=9;" parent="12eHaGMiyivRJ3mnbmv7-1" vertex="1">
          <mxGeometry x="455" y="330" width="60" height="30" as="geometry" />
        </mxCell>
        <mxCell id="3NogNschnFxZkCUM5_tC-0" value="" style="html=1;rounded=0;" parent="12eHaGMiyivRJ3mnbmv7-1" vertex="1">
          <mxGeometry x="515" y="133" width="10" height="10" as="geometry" />
        </mxCell>
        <mxCell id="3NogNschnFxZkCUM5_tC-1" value="" style="endArrow=none;html=1;rounded=0;align=center;verticalAlign=top;endFill=0;labelBackgroundColor=none;endSize=2;" parent="12eHaGMiyivRJ3mnbmv7-1" source="3NogNschnFxZkCUM5_tC-0" target="3NogNschnFxZkCUM5_tC-2" edge="1">
          <mxGeometry relative="1" as="geometry" />
        </mxCell>
        <mxCell id="3NogNschnFxZkCUM5_tC-2" value="" style="shape=requiredInterface;html=1;fontSize=11;align=center;fillColor=none;points=[];aspect=fixed;resizable=0;verticalAlign=bottom;labelPosition=center;verticalLabelPosition=top;flipH=1;" parent="12eHaGMiyivRJ3mnbmv7-1" vertex="1">
          <mxGeometry x="540" y="133" width="5" height="10" as="geometry" />
        </mxCell>
        <mxCell id="3NogNschnFxZkCUM5_tC-3" value="Manage Git Analytics Collection" style="text;html=1;align=center;verticalAlign=middle;whiteSpace=wrap;rounded=0;fontSize=9;" parent="12eHaGMiyivRJ3mnbmv7-1" vertex="1">
          <mxGeometry x="520" y="98" width="60" height="30" as="geometry" />
        </mxCell>
        <mxCell id="3NogNschnFxZkCUM5_tC-4" value="AnalyticsRepository" style="shape=module;align=left;spacingLeft=20;align=center;verticalAlign=top;whiteSpace=wrap;html=1;" parent="12eHaGMiyivRJ3mnbmv7-1" vertex="1">
          <mxGeometry x="310" y="220" width="160" height="50" as="geometry" />
        </mxCell>
        <mxCell id="3NogNschnFxZkCUM5_tC-5" value="" style="endArrow=open;endSize=12;dashed=1;html=1;rounded=0;exitX=0.5;exitY=1;exitDx=0;exitDy=0;entryX=0.5;entryY=0;entryDx=0;entryDy=0;" parent="12eHaGMiyivRJ3mnbmv7-1" source="12eHaGMiyivRJ3mnbmv7-13" target="3NogNschnFxZkCUM5_tC-4" edge="1">
          <mxGeometry width="160" relative="1" as="geometry">
            <mxPoint x="280" y="188" as="sourcePoint" />
            <mxPoint x="330" y="188" as="targetPoint" />
          </mxGeometry>
        </mxCell>
        <mxCell id="3NogNschnFxZkCUM5_tC-6" value="" style="html=1;rounded=0;" parent="12eHaGMiyivRJ3mnbmv7-1" vertex="1">
          <mxGeometry x="515" y="241" width="10" height="10" as="geometry" />
        </mxCell>
        <mxCell id="3NogNschnFxZkCUM5_tC-7" value="" style="endArrow=none;html=1;rounded=0;align=center;verticalAlign=top;endFill=0;labelBackgroundColor=none;endSize=2;" parent="12eHaGMiyivRJ3mnbmv7-1" source="3NogNschnFxZkCUM5_tC-6" target="3NogNschnFxZkCUM5_tC-8" edge="1">
          <mxGeometry relative="1" as="geometry" />
        </mxCell>
        <mxCell id="3NogNschnFxZkCUM5_tC-8" value="" style="shape=requiredInterface;html=1;fontSize=11;align=center;fillColor=none;points=[];aspect=fixed;resizable=0;verticalAlign=bottom;labelPosition=center;verticalLabelPosition=top;flipH=1;" parent="12eHaGMiyivRJ3mnbmv7-1" vertex="1">
          <mxGeometry x="540" y="241" width="5" height="10" as="geometry" />
        </mxCell>
        <mxCell id="3NogNschnFxZkCUM5_tC-9" value="&lt;font size=&quot;1&quot;&gt;Access Data&lt;/font&gt;" style="text;html=1;align=center;verticalAlign=middle;whiteSpace=wrap;rounded=0;" parent="12eHaGMiyivRJ3mnbmv7-1" vertex="1">
          <mxGeometry x="520" y="208" width="60" height="30" as="geometry" />
        </mxCell>
        <mxCell id="AlRfj4Ol_Afb7eCfQbR6-0" value="" style="html=1;rounded=0;" vertex="1" parent="12eHaGMiyivRJ3mnbmv7-1">
          <mxGeometry x="444" y="75" width="10" height="10" as="geometry" />
        </mxCell>
        <mxCell id="AlRfj4Ol_Afb7eCfQbR6-1" value="" style="ellipse;html=1;fontSize=11;align=center;fillColor=none;points=[];aspect=fixed;resizable=0;verticalAlign=bottom;labelPosition=center;verticalLabelPosition=top;flipH=1;" vertex="1" parent="12eHaGMiyivRJ3mnbmv7-1">
          <mxGeometry x="445" y="49" width="8" height="8" as="geometry" />
        </mxCell>
        <mxCell id="AlRfj4Ol_Afb7eCfQbR6-2" value="" style="endArrow=none;html=1;rounded=0;align=center;verticalAlign=top;endFill=0;labelBackgroundColor=none;endSize=2;entryX=0.495;entryY=1.005;entryDx=0;entryDy=0;entryPerimeter=0;exitX=0.5;exitY=0;exitDx=0;exitDy=0;" edge="1" parent="12eHaGMiyivRJ3mnbmv7-1" source="AlRfj4Ol_Afb7eCfQbR6-0" target="AlRfj4Ol_Afb7eCfQbR6-1">
          <mxGeometry relative="1" as="geometry">
            <mxPoint x="460" y="70" as="sourcePoint" />
            <mxPoint x="449" y="50" as="targetPoint" />
          </mxGeometry>
        </mxCell>
        <mxCell id="AlRfj4Ol_Afb7eCfQbR6-3" value="Store Analytics" style="text;html=1;align=center;verticalAlign=middle;whiteSpace=wrap;rounded=0;fontSize=9;" vertex="1" parent="12eHaGMiyivRJ3mnbmv7-1">
          <mxGeometry x="454" y="38" width="60" height="30" as="geometry" />
        </mxCell>
      </root>
    </mxGraphModel>
  </diagram>
  <diagram name="Activity" id="ebz2XSPI0sj4LCvMS9ut">
    <mxGraphModel dx="957" dy="578" grid="1" gridSize="10" guides="1" tooltips="1" connect="1" arrows="1" fold="1" page="1" pageScale="1" pageWidth="583" pageHeight="413" background="none" math="0" shadow="0">
      <root>
        <mxCell id="IaYWIpTqSB7G5keYW497-0" />
        <mxCell id="IaYWIpTqSB7G5keYW497-1" parent="IaYWIpTqSB7G5keYW497-0" />
        <mxCell id="IaYWIpTqSB7G5keYW497-2" value="«Component»&lt;br&gt;&lt;b&gt;Activity&lt;/b&gt;" style="html=1;dropTarget=0;whiteSpace=wrap;movableLabel=1;" parent="IaYWIpTqSB7G5keYW497-1" vertex="1">
          <mxGeometry x="80" y="80" width="440" height="240" as="geometry">
            <mxPoint x="1" y="-102" as="offset" />
          </mxGeometry>
        </mxCell>
        <mxCell id="IaYWIpTqSB7G5keYW497-3" value="" style="shape=module;jettyWidth=8;jettyHeight=4;" parent="IaYWIpTqSB7G5keYW497-2" vertex="1">
          <mxGeometry x="1" width="20" height="20" relative="1" as="geometry">
            <mxPoint x="-27" y="7" as="offset" />
          </mxGeometry>
        </mxCell>
        <mxCell id="IaYWIpTqSB7G5keYW497-4" value="" style="html=1;rounded=0;" parent="IaYWIpTqSB7G5keYW497-1" vertex="1">
          <mxGeometry x="75" y="132" width="10" height="10" as="geometry" />
        </mxCell>
        <mxCell id="IaYWIpTqSB7G5keYW497-5" value="" style="endArrow=none;html=1;rounded=0;align=center;verticalAlign=top;endFill=0;labelBackgroundColor=none;endSize=2;" parent="IaYWIpTqSB7G5keYW497-1" source="IaYWIpTqSB7G5keYW497-4" target="IaYWIpTqSB7G5keYW497-6" edge="1">
          <mxGeometry relative="1" as="geometry" />
        </mxCell>
        <mxCell id="IaYWIpTqSB7G5keYW497-6" value="" style="ellipse;html=1;fontSize=11;align=center;fillColor=none;points=[];aspect=fixed;resizable=0;verticalAlign=bottom;labelPosition=center;verticalLabelPosition=top;flipH=1;" parent="IaYWIpTqSB7G5keYW497-1" vertex="1">
          <mxGeometry x="40" y="133" width="8" height="8" as="geometry" />
        </mxCell>
        <mxCell id="IaYWIpTqSB7G5keYW497-7" value="" style="html=1;rounded=0;" parent="IaYWIpTqSB7G5keYW497-1" vertex="1">
          <mxGeometry x="75" y="250" width="10" height="10" as="geometry" />
        </mxCell>
        <mxCell id="IaYWIpTqSB7G5keYW497-8" value="" style="endArrow=none;html=1;rounded=0;align=center;verticalAlign=top;endFill=0;labelBackgroundColor=none;endSize=2;" parent="IaYWIpTqSB7G5keYW497-1" source="IaYWIpTqSB7G5keYW497-7" target="IaYWIpTqSB7G5keYW497-9" edge="1">
          <mxGeometry relative="1" as="geometry" />
        </mxCell>
        <mxCell id="IaYWIpTqSB7G5keYW497-9" value="" style="ellipse;html=1;fontSize=11;align=center;fillColor=none;points=[];aspect=fixed;resizable=0;verticalAlign=bottom;labelPosition=center;verticalLabelPosition=top;flipH=1;" parent="IaYWIpTqSB7G5keYW497-1" vertex="1">
          <mxGeometry x="40" y="251" width="8" height="8" as="geometry" />
        </mxCell>
        <mxCell id="IaYWIpTqSB7G5keYW497-10" value="Deploy" style="text;html=1;align=center;verticalAlign=middle;whiteSpace=wrap;rounded=0;fontSize=9;" parent="IaYWIpTqSB7G5keYW497-1" vertex="1">
          <mxGeometry x="10" y="100" width="60" height="30" as="geometry" />
        </mxCell>
        <mxCell id="IaYWIpTqSB7G5keYW497-11" value="Provide Activity" style="text;html=1;align=center;verticalAlign=middle;whiteSpace=wrap;rounded=0;fontSize=9;" parent="IaYWIpTqSB7G5keYW497-1" vertex="1">
          <mxGeometry x="10" y="220" width="60" height="30" as="geometry" />
        </mxCell>
        <mxCell id="IaYWIpTqSB7G5keYW497-12" value="ActivityController" style="shape=module;align=left;spacingLeft=20;align=center;verticalAlign=top;whiteSpace=wrap;html=1;" parent="IaYWIpTqSB7G5keYW497-1" vertex="1">
          <mxGeometry x="110" y="128" width="160" height="50" as="geometry" />
        </mxCell>
        <mxCell id="IaYWIpTqSB7G5keYW497-13" value="ActivityService" style="shape=module;align=left;spacingLeft=20;align=center;verticalAlign=top;whiteSpace=wrap;html=1;" parent="IaYWIpTqSB7G5keYW497-1" vertex="1">
          <mxGeometry x="310" y="128" width="160" height="50" as="geometry" />
        </mxCell>
        <mxCell id="IaYWIpTqSB7G5keYW497-14" value="" style="endArrow=open;endSize=12;dashed=1;html=1;rounded=0;exitX=1;exitY=1;exitDx=0;exitDy=0;entryX=0;entryY=1;entryDx=10;entryDy=0;entryPerimeter=0;" parent="IaYWIpTqSB7G5keYW497-1" source="IaYWIpTqSB7G5keYW497-12" target="IaYWIpTqSB7G5keYW497-13" edge="1">
          <mxGeometry width="160" relative="1" as="geometry">
            <mxPoint x="230" y="218" as="sourcePoint" />
            <mxPoint x="390" y="218" as="targetPoint" />
          </mxGeometry>
        </mxCell>
        <mxCell id="IaYWIpTqSB7G5keYW497-19" value="" style="html=1;rounded=0;" parent="IaYWIpTqSB7G5keYW497-1" vertex="1">
          <mxGeometry x="515" y="133" width="10" height="10" as="geometry" />
        </mxCell>
        <mxCell id="IaYWIpTqSB7G5keYW497-20" value="" style="endArrow=none;html=1;rounded=0;align=center;verticalAlign=top;endFill=0;labelBackgroundColor=none;endSize=2;" parent="IaYWIpTqSB7G5keYW497-1" source="IaYWIpTqSB7G5keYW497-19" target="IaYWIpTqSB7G5keYW497-21" edge="1">
          <mxGeometry relative="1" as="geometry" />
        </mxCell>
        <mxCell id="IaYWIpTqSB7G5keYW497-21" value="" style="shape=requiredInterface;html=1;fontSize=11;align=center;fillColor=none;points=[];aspect=fixed;resizable=0;verticalAlign=bottom;labelPosition=center;verticalLabelPosition=top;flipH=1;" parent="IaYWIpTqSB7G5keYW497-1" vertex="1">
          <mxGeometry x="540" y="133" width="5" height="10" as="geometry" />
        </mxCell>
        <mxCell id="IaYWIpTqSB7G5keYW497-22" value="&lt;span style=&quot;font-size: 9px;&quot;&gt;Activity Analytics Configuration&lt;/span&gt;" style="text;html=1;align=center;verticalAlign=middle;whiteSpace=wrap;rounded=0;" parent="IaYWIpTqSB7G5keYW497-1" vertex="1">
          <mxGeometry x="520" y="95" width="60" height="30" as="geometry" />
        </mxCell>
        <mxCell id="IaYWIpTqSB7G5keYW497-23" value="ActivityRepository" style="shape=module;align=left;spacingLeft=20;align=center;verticalAlign=top;whiteSpace=wrap;html=1;" parent="IaYWIpTqSB7G5keYW497-1" vertex="1">
          <mxGeometry x="310" y="220" width="160" height="50" as="geometry" />
        </mxCell>
        <mxCell id="IaYWIpTqSB7G5keYW497-24" value="" style="endArrow=open;endSize=12;dashed=1;html=1;rounded=0;exitX=0.5;exitY=1;exitDx=0;exitDy=0;entryX=0.5;entryY=0;entryDx=0;entryDy=0;" parent="IaYWIpTqSB7G5keYW497-1" source="IaYWIpTqSB7G5keYW497-13" target="IaYWIpTqSB7G5keYW497-23" edge="1">
          <mxGeometry width="160" relative="1" as="geometry">
            <mxPoint x="280" y="188" as="sourcePoint" />
            <mxPoint x="330" y="188" as="targetPoint" />
          </mxGeometry>
        </mxCell>
        <mxCell id="IaYWIpTqSB7G5keYW497-25" value="" style="html=1;rounded=0;" parent="IaYWIpTqSB7G5keYW497-1" vertex="1">
          <mxGeometry x="515" y="241" width="10" height="10" as="geometry" />
        </mxCell>
        <mxCell id="IaYWIpTqSB7G5keYW497-26" value="" style="endArrow=none;html=1;rounded=0;align=center;verticalAlign=top;endFill=0;labelBackgroundColor=none;endSize=2;" parent="IaYWIpTqSB7G5keYW497-1" source="IaYWIpTqSB7G5keYW497-25" target="IaYWIpTqSB7G5keYW497-27" edge="1">
          <mxGeometry relative="1" as="geometry" />
        </mxCell>
        <mxCell id="IaYWIpTqSB7G5keYW497-27" value="" style="shape=requiredInterface;html=1;fontSize=11;align=center;fillColor=none;points=[];aspect=fixed;resizable=0;verticalAlign=bottom;labelPosition=center;verticalLabelPosition=top;flipH=1;" parent="IaYWIpTqSB7G5keYW497-1" vertex="1">
          <mxGeometry x="540" y="241" width="5" height="10" as="geometry" />
        </mxCell>
        <mxCell id="IaYWIpTqSB7G5keYW497-28" value="&lt;font size=&quot;1&quot;&gt;Access Data&lt;/font&gt;" style="text;html=1;align=center;verticalAlign=middle;whiteSpace=wrap;rounded=0;" parent="IaYWIpTqSB7G5keYW497-1" vertex="1">
          <mxGeometry x="520" y="208" width="60" height="30" as="geometry" />
        </mxCell>
      </root>
    </mxGraphModel>
  </diagram>
  <diagram name="Git" id="WGd_TcGgN-qzRFQBJV_i">
    <mxGraphModel dx="957" dy="578" grid="1" gridSize="10" guides="1" tooltips="1" connect="1" arrows="1" fold="1" page="1" pageScale="1" pageWidth="583" pageHeight="413" background="none" math="0" shadow="0">
      <root>
        <mxCell id="XLCCX8bGRO4QMouMWwjW-0" />
        <mxCell id="XLCCX8bGRO4QMouMWwjW-1" parent="XLCCX8bGRO4QMouMWwjW-0" />
        <mxCell id="XLCCX8bGRO4QMouMWwjW-2" value="«Component»&lt;br&gt;&lt;b&gt;Git&lt;/b&gt;" style="html=1;dropTarget=0;whiteSpace=wrap;movableLabel=1;" vertex="1" parent="XLCCX8bGRO4QMouMWwjW-1">
          <mxGeometry x="80" y="80" width="440" height="240" as="geometry">
            <mxPoint x="1" y="-102" as="offset" />
          </mxGeometry>
        </mxCell>
        <mxCell id="XLCCX8bGRO4QMouMWwjW-3" value="" style="shape=module;jettyWidth=8;jettyHeight=4;" vertex="1" parent="XLCCX8bGRO4QMouMWwjW-2">
          <mxGeometry x="1" width="20" height="20" relative="1" as="geometry">
            <mxPoint x="-27" y="7" as="offset" />
          </mxGeometry>
        </mxCell>
        <mxCell id="XLCCX8bGRO4QMouMWwjW-4" value="" style="html=1;rounded=0;" vertex="1" parent="XLCCX8bGRO4QMouMWwjW-1">
          <mxGeometry x="75" y="132" width="10" height="10" as="geometry" />
        </mxCell>
        <mxCell id="XLCCX8bGRO4QMouMWwjW-5" value="" style="endArrow=none;html=1;rounded=0;align=center;verticalAlign=top;endFill=0;labelBackgroundColor=none;endSize=2;" edge="1" parent="XLCCX8bGRO4QMouMWwjW-1" source="XLCCX8bGRO4QMouMWwjW-4" target="XLCCX8bGRO4QMouMWwjW-6">
          <mxGeometry relative="1" as="geometry" />
        </mxCell>
        <mxCell id="XLCCX8bGRO4QMouMWwjW-6" value="" style="ellipse;html=1;fontSize=11;align=center;fillColor=none;points=[];aspect=fixed;resizable=0;verticalAlign=bottom;labelPosition=center;verticalLabelPosition=top;flipH=1;" vertex="1" parent="XLCCX8bGRO4QMouMWwjW-1">
          <mxGeometry x="40" y="133" width="8" height="8" as="geometry" />
        </mxCell>
        <mxCell id="XLCCX8bGRO4QMouMWwjW-10" value="Manage Git Analytics Collection" style="text;html=1;align=center;verticalAlign=middle;whiteSpace=wrap;rounded=0;fontSize=9;" vertex="1" parent="XLCCX8bGRO4QMouMWwjW-1">
          <mxGeometry x="10" y="100" width="60" height="30" as="geometry" />
        </mxCell>
        <mxCell id="XLCCX8bGRO4QMouMWwjW-12" value="GitService" style="shape=module;align=left;spacingLeft=20;align=center;verticalAlign=top;whiteSpace=wrap;html=1;" vertex="1" parent="XLCCX8bGRO4QMouMWwjW-1">
          <mxGeometry x="110" y="128" width="160" height="50" as="geometry" />
        </mxCell>
        <mxCell id="XLCCX8bGRO4QMouMWwjW-13" value="GitAbstractFactory" style="shape=module;align=left;spacingLeft=20;align=center;verticalAlign=top;whiteSpace=wrap;html=1;" vertex="1" parent="XLCCX8bGRO4QMouMWwjW-1">
          <mxGeometry x="310" y="128" width="160" height="50" as="geometry" />
        </mxCell>
        <mxCell id="XLCCX8bGRO4QMouMWwjW-14" value="" style="endArrow=open;endSize=12;dashed=1;html=1;rounded=0;exitX=1;exitY=1;exitDx=0;exitDy=0;entryX=0;entryY=1;entryDx=10;entryDy=0;entryPerimeter=0;" edge="1" parent="XLCCX8bGRO4QMouMWwjW-1" source="XLCCX8bGRO4QMouMWwjW-12" target="XLCCX8bGRO4QMouMWwjW-13">
          <mxGeometry width="160" relative="1" as="geometry">
            <mxPoint x="230" y="218" as="sourcePoint" />
            <mxPoint x="390" y="218" as="targetPoint" />
          </mxGeometry>
        </mxCell>
        <mxCell id="XLCCX8bGRO4QMouMWwjW-15" value="" style="html=1;rounded=0;" vertex="1" parent="XLCCX8bGRO4QMouMWwjW-1">
          <mxGeometry x="515" y="133" width="10" height="10" as="geometry" />
        </mxCell>
        <mxCell id="XLCCX8bGRO4QMouMWwjW-16" value="" style="endArrow=none;html=1;rounded=0;align=center;verticalAlign=top;endFill=0;labelBackgroundColor=none;endSize=2;" edge="1" parent="XLCCX8bGRO4QMouMWwjW-1" source="XLCCX8bGRO4QMouMWwjW-15" target="XLCCX8bGRO4QMouMWwjW-17">
          <mxGeometry relative="1" as="geometry" />
        </mxCell>
        <mxCell id="XLCCX8bGRO4QMouMWwjW-17" value="" style="shape=requiredInterface;html=1;fontSize=11;align=center;fillColor=none;points=[];aspect=fixed;resizable=0;verticalAlign=bottom;labelPosition=center;verticalLabelPosition=top;flipH=1;" vertex="1" parent="XLCCX8bGRO4QMouMWwjW-1">
          <mxGeometry x="540" y="133" width="5" height="10" as="geometry" />
        </mxCell>
        <mxCell id="XLCCX8bGRO4QMouMWwjW-18" value="&lt;span style=&quot;font-size: 9px;&quot;&gt;Fetch Analytics&lt;/span&gt;" style="text;html=1;align=center;verticalAlign=middle;whiteSpace=wrap;rounded=0;" vertex="1" parent="XLCCX8bGRO4QMouMWwjW-1">
          <mxGeometry x="520" y="95" width="60" height="30" as="geometry" />
        </mxCell>
        <mxCell id="XLCCX8bGRO4QMouMWwjW-19" value="GitStrategy" style="shape=module;align=left;spacingLeft=20;align=center;verticalAlign=top;whiteSpace=wrap;html=1;" vertex="1" parent="XLCCX8bGRO4QMouMWwjW-1">
          <mxGeometry x="310" y="220" width="160" height="50" as="geometry" />
        </mxCell>
        <mxCell id="XLCCX8bGRO4QMouMWwjW-20" value="" style="endArrow=open;endSize=12;dashed=1;html=1;rounded=0;exitX=0.5;exitY=1;exitDx=0;exitDy=0;entryX=0.5;entryY=0;entryDx=0;entryDy=0;" edge="1" parent="XLCCX8bGRO4QMouMWwjW-1" source="XLCCX8bGRO4QMouMWwjW-13" target="XLCCX8bGRO4QMouMWwjW-19">
          <mxGeometry width="160" relative="1" as="geometry">
            <mxPoint x="280" y="188" as="sourcePoint" />
            <mxPoint x="330" y="188" as="targetPoint" />
          </mxGeometry>
        </mxCell>
      </root>
    </mxGraphModel>
  </diagram>
  <diagram id="Nhhh6PvwQq6pq10PKoNM" name="AP">
    <mxGraphModel dx="1388" dy="838" grid="1" gridSize="10" guides="1" tooltips="1" connect="1" arrows="1" fold="1" page="1" pageScale="1" pageWidth="1169" pageHeight="827" math="0" shadow="0">
      <root>
        <mxCell id="0" />
        <mxCell id="1" parent="0" />
        <mxCell id="Dfi0QQYX4lWtKrpPi3XN-45" value="«subsystem»&lt;br&gt;&lt;b&gt;Git AP&lt;/b&gt;" style="html=1;dropTarget=0;whiteSpace=wrap;movableLabel=1;" vertex="1" parent="1">
          <mxGeometry x="302" y="240" width="508" height="320" as="geometry">
            <mxPoint x="-2" y="-139" as="offset" />
          </mxGeometry>
        </mxCell>
        <mxCell id="Dfi0QQYX4lWtKrpPi3XN-46" value="" style="shape=module;jettyWidth=8;jettyHeight=4;" vertex="1" parent="Dfi0QQYX4lWtKrpPi3XN-45">
          <mxGeometry x="1" width="20" height="20" relative="1" as="geometry">
            <mxPoint x="-28" y="7" as="offset" />
          </mxGeometry>
        </mxCell>
        <mxCell id="Dfi0QQYX4lWtKrpPi3XN-6" value="" style="html=1;rounded=0;" vertex="1" parent="1">
          <mxGeometry x="296.88" y="285" width="10" height="10" as="geometry" />
        </mxCell>
        <mxCell id="Dfi0QQYX4lWtKrpPi3XN-7" value="" style="endArrow=none;html=1;rounded=0;align=center;verticalAlign=top;endFill=0;labelBackgroundColor=none;endSize=2;" edge="1" parent="1" source="Dfi0QQYX4lWtKrpPi3XN-6" target="Dfi0QQYX4lWtKrpPi3XN-8">
          <mxGeometry relative="1" as="geometry" />
        </mxCell>
        <mxCell id="Dfi0QQYX4lWtKrpPi3XN-8" value="" style="ellipse;html=1;fontSize=11;align=center;fillColor=none;points=[];aspect=fixed;resizable=0;verticalAlign=bottom;labelPosition=center;verticalLabelPosition=top;flipH=1;" vertex="1" parent="1">
          <mxGeometry x="228" y="286" width="8" height="8" as="geometry" />
        </mxCell>
        <mxCell id="Dfi0QQYX4lWtKrpPi3XN-9" value="Config Parameters" style="text;html=1;align=center;verticalAlign=middle;whiteSpace=wrap;rounded=0;fontSize=9;" vertex="1" parent="1">
          <mxGeometry x="213.25" y="263" width="87.5" height="30" as="geometry" />
        </mxCell>
        <mxCell id="Dfi0QQYX4lWtKrpPi3XN-13" value="" style="ellipse;html=1;fontSize=11;align=center;fillColor=none;points=[];aspect=fixed;resizable=0;verticalAlign=bottom;labelPosition=center;verticalLabelPosition=top;flipH=1;" vertex="1" parent="1">
          <mxGeometry x="229.12" y="325" width="8" height="8" as="geometry" />
        </mxCell>
        <mxCell id="Dfi0QQYX4lWtKrpPi3XN-14" value="Config Interface" style="text;html=1;align=center;verticalAlign=middle;whiteSpace=wrap;rounded=0;fontSize=9;" vertex="1" parent="1">
          <mxGeometry x="213.25" y="300" width="87.5" height="30" as="geometry" />
        </mxCell>
        <mxCell id="Dfi0QQYX4lWtKrpPi3XN-15" value="" style="endArrow=none;html=1;rounded=0;align=center;verticalAlign=top;endFill=0;labelBackgroundColor=none;endSize=2;exitX=0;exitY=0.5;exitDx=0;exitDy=0;" edge="1" parent="1" source="Dfi0QQYX4lWtKrpPi3XN-44">
          <mxGeometry relative="1" as="geometry">
            <mxPoint x="296.8800000000001" y="329" as="sourcePoint" />
            <mxPoint x="237.12" y="328.92" as="targetPoint" />
          </mxGeometry>
        </mxCell>
        <mxCell id="Dfi0QQYX4lWtKrpPi3XN-18" value="" style="ellipse;html=1;fontSize=11;align=center;fillColor=none;points=[];aspect=fixed;resizable=0;verticalAlign=bottom;labelPosition=center;verticalLabelPosition=top;flipH=1;" vertex="1" parent="1">
          <mxGeometry x="228" y="376" width="8" height="8" as="geometry" />
        </mxCell>
        <mxCell id="Dfi0QQYX4lWtKrpPi3XN-19" value="" style="endArrow=none;html=1;rounded=0;align=center;verticalAlign=top;endFill=0;labelBackgroundColor=none;endSize=2;exitX=0;exitY=0.5;exitDx=0;exitDy=0;" edge="1" parent="1">
          <mxGeometry relative="1" as="geometry">
            <mxPoint x="296.88" y="380" as="sourcePoint" />
            <mxPoint x="236" y="379.92" as="targetPoint" />
          </mxGeometry>
        </mxCell>
        <mxCell id="Dfi0QQYX4lWtKrpPi3XN-22" value="Analytics Contract" style="text;html=1;align=center;verticalAlign=middle;whiteSpace=wrap;rounded=0;fontSize=9;" vertex="1" parent="1">
          <mxGeometry x="214.37" y="352" width="87.5" height="30" as="geometry" />
        </mxCell>
        <mxCell id="Dfi0QQYX4lWtKrpPi3XN-25" value="" style="ellipse;html=1;fontSize=11;align=center;fillColor=none;points=[];aspect=fixed;resizable=0;verticalAlign=bottom;labelPosition=center;verticalLabelPosition=top;flipH=1;" vertex="1" parent="1">
          <mxGeometry x="228" y="416" width="8" height="8" as="geometry" />
        </mxCell>
        <mxCell id="Dfi0QQYX4lWtKrpPi3XN-26" value="" style="endArrow=none;html=1;rounded=0;align=center;verticalAlign=top;endFill=0;labelBackgroundColor=none;endSize=2;exitX=0;exitY=0.5;exitDx=0;exitDy=0;" edge="1" parent="1">
          <mxGeometry relative="1" as="geometry">
            <mxPoint x="296.31999999999994" y="420" as="sourcePoint" />
            <mxPoint x="236" y="419.92" as="targetPoint" />
          </mxGeometry>
        </mxCell>
        <mxCell id="Dfi0QQYX4lWtKrpPi3XN-29" value="Provide Analytics" style="text;html=1;align=center;verticalAlign=middle;whiteSpace=wrap;rounded=0;fontSize=9;" vertex="1" parent="1">
          <mxGeometry x="214.37" y="392" width="87.5" height="30" as="geometry" />
        </mxCell>
        <mxCell id="Dfi0QQYX4lWtKrpPi3XN-34" value="" style="ellipse;html=1;fontSize=11;align=center;fillColor=none;points=[];aspect=fixed;resizable=0;verticalAlign=bottom;labelPosition=center;verticalLabelPosition=top;flipH=1;" vertex="1" parent="1">
          <mxGeometry x="228" y="486" width="8" height="8" as="geometry" />
        </mxCell>
        <mxCell id="Dfi0QQYX4lWtKrpPi3XN-35" value="" style="endArrow=none;html=1;rounded=0;align=center;verticalAlign=top;endFill=0;labelBackgroundColor=none;endSize=2;exitX=0;exitY=0.5;exitDx=0;exitDy=0;" edge="1" parent="1">
          <mxGeometry relative="1" as="geometry">
            <mxPoint x="296.88" y="490" as="sourcePoint" />
            <mxPoint x="236" y="489.92" as="targetPoint" />
          </mxGeometry>
        </mxCell>
        <mxCell id="Dfi0QQYX4lWtKrpPi3XN-39" value="" style="ellipse;html=1;fontSize=11;align=center;fillColor=none;points=[];aspect=fixed;resizable=0;verticalAlign=bottom;labelPosition=center;verticalLabelPosition=top;flipH=1;" vertex="1" parent="1">
          <mxGeometry x="228" y="526" width="8" height="8" as="geometry" />
        </mxCell>
        <mxCell id="Dfi0QQYX4lWtKrpPi3XN-40" value="" style="endArrow=none;html=1;rounded=0;align=center;verticalAlign=top;endFill=0;labelBackgroundColor=none;endSize=2;exitX=0;exitY=0.5;exitDx=0;exitDy=0;" edge="1" parent="1">
          <mxGeometry relative="1" as="geometry">
            <mxPoint x="296.88" y="530" as="sourcePoint" />
            <mxPoint x="236" y="529.9200000000001" as="targetPoint" />
          </mxGeometry>
        </mxCell>
        <mxCell id="Dfi0QQYX4lWtKrpPi3XN-42" value="Provide Activity" style="text;html=1;align=center;verticalAlign=middle;whiteSpace=wrap;rounded=0;fontSize=9;" vertex="1" parent="1">
          <mxGeometry x="214.37" y="502" width="87.5" height="30" as="geometry" />
        </mxCell>
        <mxCell id="Dfi0QQYX4lWtKrpPi3XN-43" value="Deploy" style="text;html=1;align=center;verticalAlign=middle;whiteSpace=wrap;rounded=0;fontSize=9;" vertex="1" parent="1">
          <mxGeometry x="213.25" y="462" width="87.5" height="30" as="geometry" />
        </mxCell>
        <mxCell id="Dfi0QQYX4lWtKrpPi3XN-44" value="" style="html=1;rounded=0;" vertex="1" parent="1">
          <mxGeometry x="297" y="324" width="10" height="10" as="geometry" />
        </mxCell>
        <mxCell id="Dfi0QQYX4lWtKrpPi3XN-47" value="«component»&lt;br&gt;&lt;b&gt;Configuration&lt;/b&gt;" style="html=1;dropTarget=0;whiteSpace=wrap;" vertex="1" parent="1">
          <mxGeometry x="337" y="279" width="150" height="61" as="geometry" />
        </mxCell>
        <mxCell id="Dfi0QQYX4lWtKrpPi3XN-48" value="" style="shape=module;jettyWidth=8;jettyHeight=4;" vertex="1" parent="Dfi0QQYX4lWtKrpPi3XN-47">
          <mxGeometry x="1" width="20" height="20" relative="1" as="geometry">
            <mxPoint x="-27" y="7" as="offset" />
          </mxGeometry>
        </mxCell>
        <mxCell id="ibS0zQeqz6a7upBoNHyG-1" value="" style="html=1;rounded=0;" vertex="1" parent="1">
          <mxGeometry x="333" y="285" width="10" height="10" as="geometry" />
        </mxCell>
        <mxCell id="ibS0zQeqz6a7upBoNHyG-2" value="" style="endArrow=none;html=1;rounded=0;align=center;verticalAlign=top;endFill=0;labelBackgroundColor=none;endSize=2;" edge="1" source="ibS0zQeqz6a7upBoNHyG-1" target="ibS0zQeqz6a7upBoNHyG-3" parent="1">
          <mxGeometry relative="1" as="geometry" />
        </mxCell>
        <mxCell id="ibS0zQeqz6a7upBoNHyG-3" value="" style="ellipse;html=1;fontSize=11;align=center;fillColor=none;points=[];aspect=fixed;resizable=0;verticalAlign=bottom;labelPosition=center;verticalLabelPosition=top;flipH=1;" vertex="1" parent="1">
          <mxGeometry x="314" y="286" width="8" height="8" as="geometry" />
        </mxCell>
        <mxCell id="ibS0zQeqz6a7upBoNHyG-4" value="" style="endArrow=none;html=1;rounded=0;align=center;verticalAlign=top;endFill=0;labelBackgroundColor=none;endSize=2;entryX=1.056;entryY=0.498;entryDx=0;entryDy=0;entryPerimeter=0;exitX=1;exitY=0.5;exitDx=0;exitDy=0;" edge="1" parent="1" source="Dfi0QQYX4lWtKrpPi3XN-6" target="ibS0zQeqz6a7upBoNHyG-3">
          <mxGeometry relative="1" as="geometry">
            <mxPoint x="382" y="301" as="sourcePoint" />
            <mxPoint x="356" y="301" as="targetPoint" />
          </mxGeometry>
        </mxCell>
        <mxCell id="ibS0zQeqz6a7upBoNHyG-6" value="" style="html=1;rounded=0;" vertex="1" parent="1">
          <mxGeometry x="333" y="324" width="10" height="10" as="geometry" />
        </mxCell>
        <mxCell id="ibS0zQeqz6a7upBoNHyG-7" value="" style="ellipse;html=1;fontSize=11;align=center;fillColor=none;points=[];aspect=fixed;resizable=0;verticalAlign=bottom;labelPosition=center;verticalLabelPosition=top;flipH=1;" vertex="1" parent="1">
          <mxGeometry x="314" y="325" width="8" height="8" as="geometry" />
        </mxCell>
        <mxCell id="ibS0zQeqz6a7upBoNHyG-8" value="" style="endArrow=none;html=1;rounded=0;align=center;verticalAlign=top;endFill=0;labelBackgroundColor=none;endSize=2;exitX=0;exitY=0.5;exitDx=0;exitDy=0;entryX=-0.032;entryY=0.503;entryDx=0;entryDy=0;entryPerimeter=0;" edge="1" parent="1" source="ibS0zQeqz6a7upBoNHyG-6" target="ibS0zQeqz6a7upBoNHyG-7">
          <mxGeometry relative="1" as="geometry">
            <mxPoint x="358" y="300" as="sourcePoint" />
            <mxPoint x="332" y="300" as="targetPoint" />
          </mxGeometry>
        </mxCell>
        <mxCell id="ibS0zQeqz6a7upBoNHyG-9" value="" style="endArrow=none;html=1;rounded=0;align=center;verticalAlign=top;endFill=0;labelBackgroundColor=none;endSize=2;entryX=1.046;entryY=0.503;entryDx=0;entryDy=0;entryPerimeter=0;exitX=1;exitY=0.5;exitDx=0;exitDy=0;" edge="1" parent="1" source="Dfi0QQYX4lWtKrpPi3XN-44" target="ibS0zQeqz6a7upBoNHyG-7">
          <mxGeometry relative="1" as="geometry">
            <mxPoint x="317" y="300" as="sourcePoint" />
            <mxPoint x="348" y="300" as="targetPoint" />
          </mxGeometry>
        </mxCell>
        <mxCell id="fcXc1fhdzhp0PhoDINz6-15" value="" style="html=1;rounded=0;" vertex="1" parent="1">
          <mxGeometry x="297" y="376" width="10" height="10" as="geometry" />
        </mxCell>
        <mxCell id="fcXc1fhdzhp0PhoDINz6-16" value="" style="html=1;rounded=0;" vertex="1" parent="1">
          <mxGeometry x="297.12" y="415" width="10" height="10" as="geometry" />
        </mxCell>
        <mxCell id="fcXc1fhdzhp0PhoDINz6-17" value="«component»&lt;br&gt;&lt;b&gt;Analytics&lt;/b&gt;" style="html=1;dropTarget=0;whiteSpace=wrap;" vertex="1" parent="1">
          <mxGeometry x="337.12" y="370" width="150" height="61" as="geometry" />
        </mxCell>
        <mxCell id="fcXc1fhdzhp0PhoDINz6-18" value="" style="shape=module;jettyWidth=8;jettyHeight=4;" vertex="1" parent="fcXc1fhdzhp0PhoDINz6-17">
          <mxGeometry x="1" width="20" height="20" relative="1" as="geometry">
            <mxPoint x="-27" y="7" as="offset" />
          </mxGeometry>
        </mxCell>
        <mxCell id="fcXc1fhdzhp0PhoDINz6-19" value="" style="html=1;rounded=0;" vertex="1" parent="1">
          <mxGeometry x="333.12" y="376" width="10" height="10" as="geometry" />
        </mxCell>
        <mxCell id="fcXc1fhdzhp0PhoDINz6-20" value="" style="endArrow=none;html=1;rounded=0;align=center;verticalAlign=top;endFill=0;labelBackgroundColor=none;endSize=2;" edge="1" parent="1" source="fcXc1fhdzhp0PhoDINz6-19" target="fcXc1fhdzhp0PhoDINz6-21">
          <mxGeometry relative="1" as="geometry" />
        </mxCell>
        <mxCell id="fcXc1fhdzhp0PhoDINz6-21" value="" style="ellipse;html=1;fontSize=11;align=center;fillColor=none;points=[];aspect=fixed;resizable=0;verticalAlign=bottom;labelPosition=center;verticalLabelPosition=top;flipH=1;" vertex="1" parent="1">
          <mxGeometry x="314.12" y="377" width="8" height="8" as="geometry" />
        </mxCell>
        <mxCell id="fcXc1fhdzhp0PhoDINz6-22" value="" style="endArrow=none;html=1;rounded=0;align=center;verticalAlign=top;endFill=0;labelBackgroundColor=none;endSize=2;entryX=1.056;entryY=0.498;entryDx=0;entryDy=0;entryPerimeter=0;exitX=1;exitY=0.5;exitDx=0;exitDy=0;" edge="1" parent="1" source="fcXc1fhdzhp0PhoDINz6-15" target="fcXc1fhdzhp0PhoDINz6-21">
          <mxGeometry relative="1" as="geometry">
            <mxPoint x="382.12" y="392" as="sourcePoint" />
            <mxPoint x="356.12" y="392" as="targetPoint" />
          </mxGeometry>
        </mxCell>
        <mxCell id="fcXc1fhdzhp0PhoDINz6-23" value="" style="html=1;rounded=0;" vertex="1" parent="1">
          <mxGeometry x="333.12" y="415" width="10" height="10" as="geometry" />
        </mxCell>
        <mxCell id="fcXc1fhdzhp0PhoDINz6-24" value="" style="ellipse;html=1;fontSize=11;align=center;fillColor=none;points=[];aspect=fixed;resizable=0;verticalAlign=bottom;labelPosition=center;verticalLabelPosition=top;flipH=1;" vertex="1" parent="1">
          <mxGeometry x="314.12" y="416" width="8" height="8" as="geometry" />
        </mxCell>
        <mxCell id="fcXc1fhdzhp0PhoDINz6-25" value="" style="endArrow=none;html=1;rounded=0;align=center;verticalAlign=top;endFill=0;labelBackgroundColor=none;endSize=2;exitX=0;exitY=0.5;exitDx=0;exitDy=0;entryX=-0.032;entryY=0.503;entryDx=0;entryDy=0;entryPerimeter=0;" edge="1" parent="1" source="fcXc1fhdzhp0PhoDINz6-23" target="fcXc1fhdzhp0PhoDINz6-24">
          <mxGeometry relative="1" as="geometry">
            <mxPoint x="358.12" y="391" as="sourcePoint" />
            <mxPoint x="332.12" y="391" as="targetPoint" />
          </mxGeometry>
        </mxCell>
        <mxCell id="fcXc1fhdzhp0PhoDINz6-26" value="" style="endArrow=none;html=1;rounded=0;align=center;verticalAlign=top;endFill=0;labelBackgroundColor=none;endSize=2;entryX=1.046;entryY=0.503;entryDx=0;entryDy=0;entryPerimeter=0;exitX=1;exitY=0.5;exitDx=0;exitDy=0;" edge="1" parent="1" source="fcXc1fhdzhp0PhoDINz6-16" target="fcXc1fhdzhp0PhoDINz6-24">
          <mxGeometry relative="1" as="geometry">
            <mxPoint x="317.12" y="391" as="sourcePoint" />
            <mxPoint x="348.12" y="391" as="targetPoint" />
          </mxGeometry>
        </mxCell>
        <mxCell id="fcXc1fhdzhp0PhoDINz6-27" value="" style="html=1;rounded=0;" vertex="1" parent="1">
          <mxGeometry x="296.88" y="487" width="10" height="10" as="geometry" />
        </mxCell>
        <mxCell id="fcXc1fhdzhp0PhoDINz6-28" value="" style="html=1;rounded=0;" vertex="1" parent="1">
          <mxGeometry x="297" y="526" width="10" height="10" as="geometry" />
        </mxCell>
        <mxCell id="fcXc1fhdzhp0PhoDINz6-29" value="«component»&lt;br&gt;&lt;b&gt;Activity&lt;/b&gt;" style="html=1;dropTarget=0;whiteSpace=wrap;" vertex="1" parent="1">
          <mxGeometry x="337" y="481" width="150" height="61" as="geometry" />
        </mxCell>
        <mxCell id="fcXc1fhdzhp0PhoDINz6-30" value="" style="shape=module;jettyWidth=8;jettyHeight=4;" vertex="1" parent="fcXc1fhdzhp0PhoDINz6-29">
          <mxGeometry x="1" width="20" height="20" relative="1" as="geometry">
            <mxPoint x="-27" y="7" as="offset" />
          </mxGeometry>
        </mxCell>
        <mxCell id="fcXc1fhdzhp0PhoDINz6-31" value="" style="html=1;rounded=0;" vertex="1" parent="1">
          <mxGeometry x="333" y="487" width="10" height="10" as="geometry" />
        </mxCell>
        <mxCell id="fcXc1fhdzhp0PhoDINz6-32" value="" style="endArrow=none;html=1;rounded=0;align=center;verticalAlign=top;endFill=0;labelBackgroundColor=none;endSize=2;" edge="1" parent="1" source="fcXc1fhdzhp0PhoDINz6-31" target="fcXc1fhdzhp0PhoDINz6-33">
          <mxGeometry relative="1" as="geometry" />
        </mxCell>
        <mxCell id="fcXc1fhdzhp0PhoDINz6-33" value="" style="ellipse;html=1;fontSize=11;align=center;fillColor=none;points=[];aspect=fixed;resizable=0;verticalAlign=bottom;labelPosition=center;verticalLabelPosition=top;flipH=1;" vertex="1" parent="1">
          <mxGeometry x="314" y="488" width="8" height="8" as="geometry" />
        </mxCell>
        <mxCell id="fcXc1fhdzhp0PhoDINz6-34" value="" style="endArrow=none;html=1;rounded=0;align=center;verticalAlign=top;endFill=0;labelBackgroundColor=none;endSize=2;entryX=1.056;entryY=0.498;entryDx=0;entryDy=0;entryPerimeter=0;exitX=1;exitY=0.5;exitDx=0;exitDy=0;" edge="1" parent="1" source="fcXc1fhdzhp0PhoDINz6-27" target="fcXc1fhdzhp0PhoDINz6-33">
          <mxGeometry relative="1" as="geometry">
            <mxPoint x="382" y="503" as="sourcePoint" />
            <mxPoint x="356" y="503" as="targetPoint" />
          </mxGeometry>
        </mxCell>
        <mxCell id="fcXc1fhdzhp0PhoDINz6-35" value="" style="html=1;rounded=0;" vertex="1" parent="1">
          <mxGeometry x="333" y="526" width="10" height="10" as="geometry" />
        </mxCell>
        <mxCell id="fcXc1fhdzhp0PhoDINz6-36" value="" style="ellipse;html=1;fontSize=11;align=center;fillColor=none;points=[];aspect=fixed;resizable=0;verticalAlign=bottom;labelPosition=center;verticalLabelPosition=top;flipH=1;" vertex="1" parent="1">
          <mxGeometry x="314" y="527" width="8" height="8" as="geometry" />
        </mxCell>
        <mxCell id="fcXc1fhdzhp0PhoDINz6-37" value="" style="endArrow=none;html=1;rounded=0;align=center;verticalAlign=top;endFill=0;labelBackgroundColor=none;endSize=2;exitX=0;exitY=0.5;exitDx=0;exitDy=0;entryX=-0.032;entryY=0.503;entryDx=0;entryDy=0;entryPerimeter=0;" edge="1" parent="1" source="fcXc1fhdzhp0PhoDINz6-35" target="fcXc1fhdzhp0PhoDINz6-36">
          <mxGeometry relative="1" as="geometry">
            <mxPoint x="358" y="502" as="sourcePoint" />
            <mxPoint x="332" y="502" as="targetPoint" />
          </mxGeometry>
        </mxCell>
        <mxCell id="fcXc1fhdzhp0PhoDINz6-38" value="" style="endArrow=none;html=1;rounded=0;align=center;verticalAlign=top;endFill=0;labelBackgroundColor=none;endSize=2;entryX=1.046;entryY=0.503;entryDx=0;entryDy=0;entryPerimeter=0;exitX=1;exitY=0.5;exitDx=0;exitDy=0;" edge="1" parent="1" source="fcXc1fhdzhp0PhoDINz6-28" target="fcXc1fhdzhp0PhoDINz6-36">
          <mxGeometry relative="1" as="geometry">
            <mxPoint x="317" y="502" as="sourcePoint" />
            <mxPoint x="348" y="502" as="targetPoint" />
          </mxGeometry>
        </mxCell>
        <mxCell id="k6yKoE2QPOFa4A_Ejr_5-1" value="«database»" style="html=1;dropTarget=0;whiteSpace=wrap;" vertex="1" parent="1">
          <mxGeometry x="596" y="480" width="150" height="61" as="geometry" />
        </mxCell>
        <mxCell id="k6yKoE2QPOFa4A_Ejr_5-2" value="" style="shape=module;jettyWidth=8;jettyHeight=4;" vertex="1" parent="k6yKoE2QPOFa4A_Ejr_5-1">
          <mxGeometry x="1" width="20" height="20" relative="1" as="geometry">
            <mxPoint x="-27" y="7" as="offset" />
          </mxGeometry>
        </mxCell>
        <mxCell id="5AvPDOBHwrjzxzfIlVuz-1" value="" style="html=1;rounded=0;" vertex="1" parent="1">
          <mxGeometry x="482" y="483" width="10" height="10" as="geometry" />
        </mxCell>
        <mxCell id="5AvPDOBHwrjzxzfIlVuz-2" value="" style="html=1;rounded=0;" vertex="1" parent="1">
          <mxGeometry x="481.62" y="523" width="10" height="10" as="geometry" />
        </mxCell>
        <mxCell id="5AvPDOBHwrjzxzfIlVuz-3" value="" style="endArrow=none;html=1;rounded=0;align=center;verticalAlign=top;endFill=0;labelBackgroundColor=none;endSize=2;exitX=1;exitY=0.5;exitDx=0;exitDy=0;" edge="1" parent="1" source="5AvPDOBHwrjzxzfIlVuz-1" target="5AvPDOBHwrjzxzfIlVuz-4">
          <mxGeometry relative="1" as="geometry">
            <mxPoint x="537" y="488" as="sourcePoint" />
          </mxGeometry>
        </mxCell>
        <mxCell id="5AvPDOBHwrjzxzfIlVuz-4" value="" style="shape=requiredInterface;html=1;fontSize=11;align=center;fillColor=none;points=[];aspect=fixed;resizable=0;verticalAlign=bottom;labelPosition=center;verticalLabelPosition=top;flipH=1;" vertex="1" parent="1">
          <mxGeometry x="524" y="483" width="5" height="10" as="geometry" />
        </mxCell>
        <mxCell id="5AvPDOBHwrjzxzfIlVuz-7" value="" style="endArrow=none;html=1;rounded=0;align=center;verticalAlign=top;endFill=0;labelBackgroundColor=none;endSize=2;exitX=1;exitY=0.5;exitDx=0;exitDy=0;" edge="1" parent="1" source="5AvPDOBHwrjzxzfIlVuz-2" target="5AvPDOBHwrjzxzfIlVuz-8">
          <mxGeometry relative="1" as="geometry">
            <mxPoint x="536.62" y="528" as="sourcePoint" />
          </mxGeometry>
        </mxCell>
        <mxCell id="5AvPDOBHwrjzxzfIlVuz-8" value="" style="shape=requiredInterface;html=1;fontSize=11;align=center;fillColor=none;points=[];aspect=fixed;resizable=0;verticalAlign=bottom;labelPosition=center;verticalLabelPosition=top;flipH=1;" vertex="1" parent="1">
          <mxGeometry x="524.62" y="523" width="5" height="10" as="geometry" />
        </mxCell>
        <mxCell id="5AvPDOBHwrjzxzfIlVuz-9" value="" style="ellipse;html=1;fontSize=11;align=center;fillColor=none;points=[];aspect=fixed;resizable=0;verticalAlign=bottom;labelPosition=center;verticalLabelPosition=top;flipH=1;" vertex="1" parent="1">
          <mxGeometry x="558.62" y="524" width="8" height="8" as="geometry" />
        </mxCell>
        <mxCell id="5AvPDOBHwrjzxzfIlVuz-10" value="" style="endArrow=none;html=1;rounded=0;align=center;verticalAlign=top;endFill=0;labelBackgroundColor=none;endSize=2;exitX=0;exitY=0.5;exitDx=0;exitDy=0;entryX=0.064;entryY=0.501;entryDx=0;entryDy=0;entryPerimeter=0;" edge="1" parent="1" source="5AvPDOBHwrjzxzfIlVuz-14" target="5AvPDOBHwrjzxzfIlVuz-9">
          <mxGeometry relative="1" as="geometry">
            <mxPoint x="602.5" y="528" as="sourcePoint" />
            <mxPoint x="541.62" y="527.9200000000001" as="targetPoint" />
          </mxGeometry>
        </mxCell>
        <mxCell id="5AvPDOBHwrjzxzfIlVuz-11" value="Access Data" style="text;html=1;align=center;verticalAlign=middle;whiteSpace=wrap;rounded=0;fontSize=9;" vertex="1" parent="1">
          <mxGeometry x="497.12" y="526" width="87.5" height="30" as="geometry" />
        </mxCell>
        <mxCell id="5AvPDOBHwrjzxzfIlVuz-12" value="Activity Analytics Configuration" style="text;html=1;align=center;verticalAlign=middle;whiteSpace=wrap;rounded=0;fontSize=9;" vertex="1" parent="1">
          <mxGeometry x="388.5" y="446" width="87.5" height="30" as="geometry" />
        </mxCell>
        <mxCell id="5AvPDOBHwrjzxzfIlVuz-14" value="" style="html=1;rounded=0;" vertex="1" parent="1">
          <mxGeometry x="591.62" y="523" width="10" height="10" as="geometry" />
        </mxCell>
        <mxCell id="5AvPDOBHwrjzxzfIlVuz-15" value="" style="endArrow=open;endSize=12;dashed=1;html=1;rounded=0;exitX=0.372;exitY=0.06;exitDx=0;exitDy=0;exitPerimeter=0;" edge="1" parent="1" source="5AvPDOBHwrjzxzfIlVuz-11">
          <mxGeometry width="160" relative="1" as="geometry">
            <mxPoint x="528.62" y="527.71" as="sourcePoint" />
            <mxPoint x="558.62" y="527.71" as="targetPoint" />
          </mxGeometry>
        </mxCell>
        <mxCell id="SY4jkjrnUbziZDKExdC3-1" value="" style="html=1;rounded=0;" vertex="1" parent="1">
          <mxGeometry x="466" y="426" width="10" height="10" as="geometry" />
        </mxCell>
        <mxCell id="SY4jkjrnUbziZDKExdC3-2" value="" style="ellipse;html=1;fontSize=11;align=center;fillColor=none;points=[];aspect=fixed;resizable=0;verticalAlign=bottom;labelPosition=center;verticalLabelPosition=top;flipH=1;" vertex="1" parent="1">
          <mxGeometry x="467" y="446" width="8" height="8" as="geometry" />
        </mxCell>
        <mxCell id="SY4jkjrnUbziZDKExdC3-3" value="" style="endArrow=none;html=1;rounded=0;align=center;verticalAlign=top;endFill=0;labelBackgroundColor=none;endSize=2;exitX=0.501;exitY=-0.032;exitDx=0;exitDy=0;entryX=0.5;entryY=1;entryDx=0;entryDy=0;exitPerimeter=0;" edge="1" parent="1" source="SY4jkjrnUbziZDKExdC3-2" target="SY4jkjrnUbziZDKExdC3-1">
          <mxGeometry relative="1" as="geometry">
            <mxPoint x="508" y="446" as="sourcePoint" />
            <mxPoint x="482" y="446" as="targetPoint" />
          </mxGeometry>
        </mxCell>
        <mxCell id="SY4jkjrnUbziZDKExdC3-4" value="" style="endArrow=open;endSize=12;dashed=1;html=1;rounded=0;entryX=0.5;entryY=1.097;entryDx=0;entryDy=0;entryPerimeter=0;" edge="1" parent="1" source="5AvPDOBHwrjzxzfIlVuz-4" target="SY4jkjrnUbziZDKExdC3-2">
          <mxGeometry width="160" relative="1" as="geometry">
            <mxPoint x="534" y="488" as="sourcePoint" />
            <mxPoint x="564" y="488" as="targetPoint" />
            <Array as="points">
              <mxPoint x="547" y="488" />
              <mxPoint x="547" y="470" />
              <mxPoint x="471" y="470" />
            </Array>
          </mxGeometry>
        </mxCell>
        <mxCell id="5fAFpdx8aY_bmC3B2hhk-1" value="" style="html=1;rounded=0;" vertex="1" parent="1">
          <mxGeometry x="482" y="413" width="10" height="10" as="geometry" />
        </mxCell>
        <mxCell id="5fAFpdx8aY_bmC3B2hhk-2" value="" style="endArrow=none;html=1;rounded=0;align=center;verticalAlign=top;endFill=0;labelBackgroundColor=none;endSize=2;exitX=1;exitY=0.5;exitDx=0;exitDy=0;" edge="1" parent="1" source="5fAFpdx8aY_bmC3B2hhk-1" target="5fAFpdx8aY_bmC3B2hhk-3">
          <mxGeometry relative="1" as="geometry">
            <mxPoint x="537" y="418" as="sourcePoint" />
          </mxGeometry>
        </mxCell>
        <mxCell id="5fAFpdx8aY_bmC3B2hhk-3" value="" style="shape=requiredInterface;html=1;fontSize=11;align=center;fillColor=none;points=[];aspect=fixed;resizable=0;verticalAlign=bottom;labelPosition=center;verticalLabelPosition=top;flipH=1;" vertex="1" parent="1">
          <mxGeometry x="525" y="413" width="5" height="10" as="geometry" />
        </mxCell>
        <mxCell id="5fAFpdx8aY_bmC3B2hhk-4" value="" style="ellipse;html=1;fontSize=11;align=center;fillColor=none;points=[];aspect=fixed;resizable=0;verticalAlign=bottom;labelPosition=center;verticalLabelPosition=top;flipH=1;" vertex="1" parent="1">
          <mxGeometry x="559" y="414" width="8" height="8" as="geometry" />
        </mxCell>
        <mxCell id="5fAFpdx8aY_bmC3B2hhk-5" value="" style="endArrow=none;html=1;rounded=0;align=center;verticalAlign=top;endFill=0;labelBackgroundColor=none;endSize=2;exitX=0;exitY=0.5;exitDx=0;exitDy=0;entryX=0.064;entryY=0.501;entryDx=0;entryDy=0;entryPerimeter=0;" edge="1" parent="1" source="5fAFpdx8aY_bmC3B2hhk-7" target="5fAFpdx8aY_bmC3B2hhk-4">
          <mxGeometry relative="1" as="geometry">
            <mxPoint x="602.88" y="418" as="sourcePoint" />
            <mxPoint x="542" y="417.9200000000001" as="targetPoint" />
            <Array as="points">
              <mxPoint x="577" y="490" />
              <mxPoint x="577" y="418" />
            </Array>
          </mxGeometry>
        </mxCell>
        <mxCell id="5fAFpdx8aY_bmC3B2hhk-6" value="Access Data" style="text;html=1;align=center;verticalAlign=middle;whiteSpace=wrap;rounded=0;fontSize=9;" vertex="1" parent="1">
          <mxGeometry x="497.12" y="416" width="87.5" height="30" as="geometry" />
        </mxCell>
        <mxCell id="5fAFpdx8aY_bmC3B2hhk-7" value="" style="html=1;rounded=0;" vertex="1" parent="1">
          <mxGeometry x="592" y="485" width="10" height="10" as="geometry" />
        </mxCell>
        <mxCell id="5fAFpdx8aY_bmC3B2hhk-8" value="" style="endArrow=open;endSize=12;dashed=1;html=1;rounded=0;exitX=0.372;exitY=0.06;exitDx=0;exitDy=0;exitPerimeter=0;" edge="1" parent="1" source="5fAFpdx8aY_bmC3B2hhk-6">
          <mxGeometry width="160" relative="1" as="geometry">
            <mxPoint x="529" y="417.71" as="sourcePoint" />
            <mxPoint x="559" y="417.71" as="targetPoint" />
          </mxGeometry>
        </mxCell>
        <mxCell id="Md4Oi9nyrk2OACODny9T-1" value="«component»&lt;br&gt;&lt;b&gt;Git&lt;/b&gt;" style="html=1;dropTarget=0;whiteSpace=wrap;" vertex="1" parent="1">
          <mxGeometry x="596" y="279" width="150" height="61" as="geometry" />
        </mxCell>
        <mxCell id="Md4Oi9nyrk2OACODny9T-2" value="" style="shape=module;jettyWidth=8;jettyHeight=4;" vertex="1" parent="Md4Oi9nyrk2OACODny9T-1">
          <mxGeometry x="1" width="20" height="20" relative="1" as="geometry">
            <mxPoint x="-27" y="7" as="offset" />
          </mxGeometry>
        </mxCell>
        <mxCell id="7VzUWsiiGWDHwhVzgfoF-1" value="" style="html=1;rounded=0;" vertex="1" parent="1">
          <mxGeometry x="482" y="375" width="10" height="10" as="geometry" />
        </mxCell>
        <mxCell id="7VzUWsiiGWDHwhVzgfoF-2" value="" style="endArrow=none;html=1;rounded=0;align=center;verticalAlign=top;endFill=0;labelBackgroundColor=none;endSize=2;exitX=1;exitY=0.5;exitDx=0;exitDy=0;" edge="1" parent="1" source="7VzUWsiiGWDHwhVzgfoF-1" target="7VzUWsiiGWDHwhVzgfoF-3">
          <mxGeometry relative="1" as="geometry">
            <mxPoint x="537" y="380" as="sourcePoint" />
          </mxGeometry>
        </mxCell>
        <mxCell id="7VzUWsiiGWDHwhVzgfoF-3" value="" style="shape=requiredInterface;html=1;fontSize=11;align=center;fillColor=none;points=[];aspect=fixed;resizable=0;verticalAlign=bottom;labelPosition=center;verticalLabelPosition=top;flipH=1;" vertex="1" parent="1">
          <mxGeometry x="525" y="375" width="5" height="10" as="geometry" />
        </mxCell>
        <mxCell id="7VzUWsiiGWDHwhVzgfoF-4" value="" style="ellipse;html=1;fontSize=11;align=center;fillColor=none;points=[];aspect=fixed;resizable=0;verticalAlign=bottom;labelPosition=center;verticalLabelPosition=top;flipH=1;" vertex="1" parent="1">
          <mxGeometry x="559" y="376" width="8" height="8" as="geometry" />
        </mxCell>
        <mxCell id="7VzUWsiiGWDHwhVzgfoF-5" value="" style="endArrow=none;html=1;rounded=0;align=center;verticalAlign=top;endFill=0;labelBackgroundColor=none;endSize=2;exitX=0;exitY=0.5;exitDx=0;exitDy=0;entryX=0.064;entryY=0.501;entryDx=0;entryDy=0;entryPerimeter=0;" edge="1" parent="1" source="7VzUWsiiGWDHwhVzgfoF-7" target="7VzUWsiiGWDHwhVzgfoF-4">
          <mxGeometry relative="1" as="geometry">
            <mxPoint x="602.88" y="380" as="sourcePoint" />
            <mxPoint x="542" y="379.9200000000001" as="targetPoint" />
            <Array as="points">
              <mxPoint x="577" y="291" />
              <mxPoint x="577" y="380" />
            </Array>
          </mxGeometry>
        </mxCell>
        <mxCell id="7VzUWsiiGWDHwhVzgfoF-6" value="Manage Git Analytics Collection" style="text;html=1;align=center;verticalAlign=middle;whiteSpace=wrap;rounded=0;fontSize=9;" vertex="1" parent="1">
          <mxGeometry x="476" y="347" width="87.5" height="30" as="geometry" />
        </mxCell>
        <mxCell id="7VzUWsiiGWDHwhVzgfoF-7" value="" style="html=1;rounded=0;" vertex="1" parent="1">
          <mxGeometry x="592" y="286" width="10" height="10" as="geometry" />
        </mxCell>
        <mxCell id="7VzUWsiiGWDHwhVzgfoF-8" value="" style="endArrow=open;endSize=12;dashed=1;html=1;rounded=0;" edge="1" parent="1" source="7VzUWsiiGWDHwhVzgfoF-3">
          <mxGeometry width="160" relative="1" as="geometry">
            <mxPoint x="529" y="379.71" as="sourcePoint" />
            <mxPoint x="559" y="379.71" as="targetPoint" />
          </mxGeometry>
        </mxCell>
        <mxCell id="QlTLZqwsd5tdmfZlE4bf-19" value="" style="html=1;rounded=0;" vertex="1" parent="1">
          <mxGeometry x="741" y="286" width="10" height="10" as="geometry" />
        </mxCell>
        <mxCell id="QlTLZqwsd5tdmfZlE4bf-20" value="" style="html=1;rounded=0;" vertex="1" parent="1">
          <mxGeometry x="805" y="286" width="10" height="10" as="geometry" />
        </mxCell>
        <mxCell id="QlTLZqwsd5tdmfZlE4bf-21" value="" style="endArrow=none;html=1;rounded=0;align=center;verticalAlign=top;endFill=0;labelBackgroundColor=none;endSize=2;" edge="1" parent="1" source="QlTLZqwsd5tdmfZlE4bf-20" target="QlTLZqwsd5tdmfZlE4bf-22">
          <mxGeometry relative="1" as="geometry" />
        </mxCell>
        <mxCell id="QlTLZqwsd5tdmfZlE4bf-22" value="" style="ellipse;html=1;fontSize=11;align=center;fillColor=none;points=[];aspect=fixed;resizable=0;verticalAlign=bottom;labelPosition=center;verticalLabelPosition=top;flipH=1;" vertex="1" parent="1">
          <mxGeometry x="772.12" y="287" width="8" height="8" as="geometry" />
        </mxCell>
        <mxCell id="QlTLZqwsd5tdmfZlE4bf-23" value="" style="endArrow=none;html=1;rounded=0;align=center;verticalAlign=top;endFill=0;labelBackgroundColor=none;endSize=2;entryX=1.056;entryY=0.498;entryDx=0;entryDy=0;entryPerimeter=0;exitX=1;exitY=0.5;exitDx=0;exitDy=0;" edge="1" parent="1" source="QlTLZqwsd5tdmfZlE4bf-19" target="QlTLZqwsd5tdmfZlE4bf-22">
          <mxGeometry relative="1" as="geometry">
            <mxPoint x="865.12" y="302" as="sourcePoint" />
            <mxPoint x="839.12" y="302" as="targetPoint" />
          </mxGeometry>
        </mxCell>
        <mxCell id="QlTLZqwsd5tdmfZlE4bf-25" value="" style="endArrow=none;html=1;rounded=0;align=center;verticalAlign=top;endFill=0;labelBackgroundColor=none;endSize=2;entryX=1;entryY=0.5;entryDx=0;entryDy=0;exitX=1.052;exitY=0.501;exitDx=0;exitDy=0;exitPerimeter=0;" edge="1" source="QlTLZqwsd5tdmfZlE4bf-26" target="QlTLZqwsd5tdmfZlE4bf-20" parent="1">
          <mxGeometry relative="1" as="geometry">
            <mxPoint x="921" y="291" as="sourcePoint" />
            <mxPoint x="846" y="250" as="targetPoint" />
          </mxGeometry>
        </mxCell>
        <mxCell id="QlTLZqwsd5tdmfZlE4bf-26" value="" style="shape=requiredInterface;html=1;fontSize=11;align=center;fillColor=none;points=[];aspect=fixed;resizable=0;verticalAlign=bottom;labelPosition=center;verticalLabelPosition=top;flipH=1;" vertex="1" parent="1">
          <mxGeometry x="829" y="286" width="5" height="10" as="geometry" />
        </mxCell>
        <mxCell id="QlTLZqwsd5tdmfZlE4bf-27" value="" style="ellipse;html=1;fontSize=11;align=center;fillColor=none;points=[];aspect=fixed;resizable=0;verticalAlign=bottom;labelPosition=center;verticalLabelPosition=top;flipH=1;" vertex="1" parent="1">
          <mxGeometry x="863" y="287" width="8" height="8" as="geometry" />
        </mxCell>
        <mxCell id="QlTLZqwsd5tdmfZlE4bf-28" value="" style="endArrow=open;endSize=12;dashed=1;html=1;rounded=0;exitX=0.372;exitY=0.06;exitDx=0;exitDy=0;exitPerimeter=0;entryX=1.019;entryY=0.497;entryDx=0;entryDy=0;entryPerimeter=0;" edge="1" parent="1" target="QlTLZqwsd5tdmfZlE4bf-27">
          <mxGeometry width="160" relative="1" as="geometry">
            <mxPoint x="834" y="290.96000000000004" as="sourcePoint" />
            <mxPoint x="863" y="290.67" as="targetPoint" />
          </mxGeometry>
        </mxCell>
        <mxCell id="QlTLZqwsd5tdmfZlE4bf-29" value="" style="endArrow=none;html=1;rounded=0;align=center;verticalAlign=top;endFill=0;labelBackgroundColor=none;endSize=2;entryX=0.026;entryY=0.496;entryDx=0;entryDy=0;entryPerimeter=0;" edge="1" parent="1" source="QlTLZqwsd5tdmfZlE4bf-34" target="QlTLZqwsd5tdmfZlE4bf-27">
          <mxGeometry relative="1" as="geometry">
            <mxPoint x="898" y="291" as="sourcePoint" />
            <mxPoint x="871" y="291" as="targetPoint" />
            <Array as="points">
              <mxPoint x="899" y="291" />
            </Array>
          </mxGeometry>
        </mxCell>
        <mxCell id="QlTLZqwsd5tdmfZlE4bf-32" value="«component»&lt;br&gt;&lt;b&gt;GitHub&lt;/b&gt;" style="html=1;dropTarget=0;whiteSpace=wrap;" vertex="1" parent="1">
          <mxGeometry x="824" y="355" width="150" height="61" as="geometry" />
        </mxCell>
        <mxCell id="QlTLZqwsd5tdmfZlE4bf-33" value="" style="shape=module;jettyWidth=8;jettyHeight=4;" vertex="1" parent="QlTLZqwsd5tdmfZlE4bf-32">
          <mxGeometry x="1" width="20" height="20" relative="1" as="geometry">
            <mxPoint x="-27" y="7" as="offset" />
          </mxGeometry>
        </mxCell>
        <mxCell id="QlTLZqwsd5tdmfZlE4bf-34" value="" style="html=1;rounded=0;" vertex="1" parent="1">
          <mxGeometry x="894" y="350" width="10" height="10" as="geometry" />
        </mxCell>
        <mxCell id="QlTLZqwsd5tdmfZlE4bf-37" value="&lt;span style=&quot;font-size: 9px;&quot;&gt;Fetch Analytics&lt;/span&gt;" style="text;html=1;align=center;verticalAlign=middle;whiteSpace=wrap;rounded=0;" vertex="1" parent="1">
          <mxGeometry x="815" y="249" width="60" height="30" as="geometry" />
        </mxCell>
      </root>
    </mxGraphModel>
  </diagram>
</mxfile>
